<?xml version="1.0" encoding="UTF-8" standalone="no"?>
<!-- Created with Inkscape (http://www.inkscape.org/) -->

<svg
   width="16"
   height="16"
   viewBox="0 0 4.2333333 4.2333333"
   version="1.1"
   id="svg1"
   xml:space="preserve"
   inkscape:version="1.3.2 (091e20e, 2023-11-25, custom)"
   sodipodi:docname="grid_inventory_view_icon.svg"
   xmlns:inkscape="http://www.inkscape.org/namespaces/inkscape"
   xmlns:sodipodi="http://sodipodi.sourceforge.net/DTD/sodipodi-0.dtd"
   xmlns="http://www.w3.org/2000/svg"
   xmlns:svg="http://www.w3.org/2000/svg"><sodipodi:namedview
     id="namedview1"
     pagecolor="#ffffff"
     bordercolor="#000000"
     borderopacity="0.25"
     inkscape:showpageshadow="2"
     inkscape:pageopacity="0.0"
     inkscape:pagecheckerboard="0"
     inkscape:deskcolor="#d1d1d1"
     inkscape:document-units="mm"
     inkscape:zoom="49.063846"
     inkscape:cx="9.4978286"
     inkscape:cy="10.078704"
     inkscape:window-width="2560"
     inkscape:window-height="1494"
     inkscape:window-x="-11"
     inkscape:window-y="-11"
     inkscape:window-maximized="1"
     inkscape:current-layer="layer1"
     showgrid="true"><inkscape:grid
       id="grid34"
       units="px"
       originx="0"
       originy="0"
       spacingx="0.26458333"
       spacingy="0.26458333"
       empcolor="#0099e5"
       empopacity="0.30196078"
       color="#0099e5"
       opacity="0.14901961"
       empspacing="5"
       dotted="false"
       gridanglex="30"
       gridanglez="30"
       visible="true" /></sodipodi:namedview><defs
     id="defs1" /><g
     inkscape:label="Слой 1"
     inkscape:groupmode="layer"
     id="layer1"><g
       id="g41"
       inkscape:label="grid"
       style="fill:#dfdfdf;fill-opacity:1"><rect
         style="fill:#dfdfdf;stroke:#8eef97;stroke-width:0;fill-opacity:1"
         id="rect9"
         width="1.0583333"
         height="1.0583334"
         x="1.5875"
         y="3.175" /><rect
         style="fill:#dfdfdf;stroke:#8eef97;stroke-width:0;fill-opacity:1"
         id="rect34"
         width="1.0583334"
         height="1.0583334"
         x="0"
         y="3.175" /><rect
         style="fill:#dfdfdf;stroke:#8eef97;stroke-width:0;fill-opacity:1"
         id="rect35"
         width="1.0583334"
         height="1.0583334"
         x="3.175"
         y="3.175" /><rect
         style="fill:#dfdfdf;stroke:#8eef97;stroke-width:0;fill-opacity:1"
         id="rect36"
         width="1.0583333"
         height="1.0583334"
         x="1.5875"
         y="1.5875" /><rect
         style="fill:#dfdfdf;stroke:#8eef97;stroke-width:0;fill-opacity:1"
         id="rect37"
         width="1.0583334"
         height="1.0583334"
         x="-1.7347235e-18"
         y="1.5875" /><rect
         style="fill:#dfdfdf;stroke:#8eef97;stroke-width:0;fill-opacity:1"
         id="rect38"
         width="1.0583334"
         height="1.0583334"
         x="3.175"
         y="1.5875" /><rect
         style="fill:#dfdfdf;stroke:#8eef97;stroke-width:0;fill-opacity:1"
         id="rect39"
         width="1.0583333"
         height="1.0583334"
         x="1.5875"
         y="0" /><rect
         style="fill:#dfdfdf;stroke:#8eef97;stroke-width:0;fill-opacity:1"
         id="rect40"
         width="1.0583334"
         height="1.0583334"
         x="8.6736174e-19"
         y="-3.469447e-18" /><rect
         style="fill:#dfdfdf;stroke:#8eef97;stroke-width:0;fill-opacity:1"
         id="rect41"
         width="1.0583334"
         height="1.0583334"
         x="3.175"
         y="-3.469447e-18" /></g><path
       d="m 237.46191,104.26611 a 8.00135,8.00135 0 0 0 -3.93554,-5.29687 L 209.75049,85.77051 c -1.31592,-2.55078 -2.75391,-5.04639 -4.29981,-7.46094 l 0.458,-27.2124 a 8.00049,8.00049 0 0 0 -2.62158,-6.05811 111.13811,111.13811 0 0 0 -41.10937,-23.69726 8.00131,8.00131 0 0 0 -6.55468,0.75927 l -23.31836,13.9917 c -2.86865,-0.13672 -5.75,-0.13916 -8.61133,-0.0068 L 100.35547,22.08252 A 8.003,8.003 0 0 0 93.79785,21.32373 111.15557,111.15557 0 0 0 52.7207,45.07715 8.00055,8.00055 0 0 0 50.10107,51.13379 l 0.45752,27.18994 c -1.55078,2.41455 -2.99365,4.90869 -4.31152,7.4541 l -23.7959,13.21 a 8.0003,8.0003 0 0 0 -3.93555,5.29932 111.13522,111.13522 0 0 0 0.03223,47.45068 8.00135,8.00135 0 0 0 3.93555,5.29688 l 23.77588,13.19869 c 1.31592,2.55078 2.7539,5.04639 4.2998,7.46094 l -0.458,27.2124 a 8.00053,8.00053 0 0 0 2.62159,6.0581 111.13809,111.13809 0 0 0 41.10933,23.69727 8.00177,8.00177 0 0 0 6.55469,-0.75928 l 23.31836,-13.9917 c 2.86816,0.13623 5.749,0.13867 8.61133,0.007 l 23.33789,14.00342 a 8.00237,8.00237 0 0 0 6.55761,0.75879 111.15549,111.15549 0 0 0 41.07715,-23.75342 8.00052,8.00052 0 0 0 2.61963,-6.05664 l -0.45752,-27.18994 c 1.55078,-2.41455 2.99365,-4.9087 4.31153,-7.45411 l 23.79589,-13.21 a 8.0002,8.0002 0 0 0 3.93555,-5.29931 111.13527,111.13527 0 0 0 -0.0322,-47.45065 z M 128.00488,172.002 a 44,44 0 1 1 44,-44 44.04978,44.04978 0 0 1 -44,44 z"
       id="path1-0"
       style="display:none;fill:#8eef97;fill-opacity:1;stroke-width:62.2269"
       transform="matrix(0.01298885,0,0,0.0135925,-0.20742826,1.0382564)" /></g></svg>
